<svg id="visual" viewBox="0 0 900 600" width="900" height="600" xmlns="http://www.w3.org/2000/svg" xmlns:xlink="http://www.w3.org/1999/xlink" version="1.1"><rect x="0" y="0" width="900" height="600" fill="#1D1128"></rect><defs><linearGradient id="grad1_0" x1="33.3%" y1="0%" x2="100%" y2="100%"><stop offset="20%" stop-color="#5941a9" stop-opacity="1"></stop><stop offset="80%" stop-color="#5941a9" stop-opacity="1"></stop></linearGradient></defs><defs><linearGradient id="grad1_1" x1="33.3%" y1="0%" x2="100%" y2="100%"><stop offset="20%" stop-color="#5941a9" stop-opacity="1"></stop><stop offset="80%" stop-color="#3e2764" stop-opacity="1"></stop></linearGradient></defs><defs><linearGradient id="grad1_2" x1="33.3%" y1="0%" x2="100%" y2="100%"><stop offset="20%" stop-color="#1d1128" stop-opacity="1"></stop><stop offset="80%" stop-color="#3e2764" stop-opacity="1"></stop></linearGradient></defs><defs><linearGradient id="grad2_0" x1="0%" y1="0%" x2="66.7%" y2="100%"><stop offset="20%" stop-color="#5941a9" stop-opacity="1"></stop><stop offset="80%" stop-color="#5941a9" stop-opacity="1"></stop></linearGradient></defs><defs><linearGradient id="grad2_1" x1="0%" y1="0%" x2="66.7%" y2="100%"><stop offset="20%" stop-color="#3e2764" stop-opacity="1"></stop><stop offset="80%" stop-color="#5941a9" stop-opacity="1"></stop></linearGradient></defs><defs><linearGradient id="grad2_2" x1="0%" y1="0%" x2="66.7%" y2="100%"><stop offset="20%" stop-color="#3e2764" stop-opacity="1"></stop><stop offset="80%" stop-color="#1d1128" stop-opacity="1"></stop></linearGradient></defs><g transform="translate(900, 0)"><path d="M0 486.7C-34.4 448.9 -68.9 411 -105.3 393.1C-141.8 375.3 -180.2 377.5 -210 363.7C-239.8 349.9 -260.9 320.2 -301.2 301.2C-341.5 282.3 -401 274.2 -421.5 243.4C-442 212.6 -423.5 159 -427.9 114.7C-432.3 70.3 -459.5 35.2 -486.7 0L0 0Z" fill="#2e1b44"></path><path d="M0 324.5C-23 299.2 -45.9 274 -70.2 262.1C-94.5 250.2 -120.1 251.7 -140 242.5C-159.9 233.3 -173.9 213.4 -200.8 200.8C-227.7 188.2 -267.4 182.8 -281 162.2C-294.7 141.7 -282.4 106 -285.3 76.4C-288.2 46.9 -306.3 23.4 -324.5 0L0 0Z" fill="#4c3385"></path><path d="M0 162.2C-11.5 149.6 -23 137 -35.1 131C-47.3 125.1 -60.1 125.8 -70 121.2C-79.9 116.6 -87 106.7 -100.4 100.4C-113.8 94.1 -133.7 91.4 -140.5 81.1C-147.3 70.9 -141.2 53 -142.6 38.2C-144.1 23.4 -153.2 11.7 -162.2 0L0 0Z" fill="#5941a9"></path></g><g transform="translate(0, 600)"><path d="M0 -486.7C36 -442.1 71.9 -397.4 98.4 -367.1C124.8 -336.7 141.6 -320.5 186.5 -323C231.4 -325.5 304.2 -346.6 320.3 -320.3C336.4 -294 295.8 -220.4 319.6 -184.5C343.3 -148.6 431.6 -150.4 470.2 -126C508.8 -101.5 497.8 -50.8 486.7 0L0 0Z" fill="#2e1b44"></path><path d="M0 -324.5C24 -294.7 48 -265 65.6 -244.7C83.2 -224.4 94.4 -213.7 124.3 -215.4C154.2 -217 202.8 -231.1 213.5 -213.5C224.3 -196 197.2 -146.9 213 -123C228.9 -99.1 287.7 -100.3 313.4 -84C339.2 -67.7 331.8 -33.8 324.5 0L0 0Z" fill="#4c3385"></path><path d="M0 -162.2C12 -147.4 24 -132.5 32.8 -122.4C41.6 -112.2 47.2 -106.8 62.2 -107.7C77.1 -108.5 101.4 -115.5 106.8 -106.8C112.1 -98 98.6 -73.5 106.5 -61.5C114.4 -49.5 143.9 -50.1 156.7 -42C169.6 -33.8 165.9 -16.9 162.2 0L0 0Z" fill="#5941a9"></path></g></svg>