<svg id="visual" viewBox="0 0 900 600" width="900" height="600" xmlns="http://www.w3.org/2000/svg" xmlns:xlink="http://www.w3.org/1999/xlink" version="1.1"><rect x="0" y="0" width="900" height="600" fill="#001220"></rect><defs><linearGradient id="grad1_0" x1="33.3%" y1="0%" x2="100%" y2="100%"><stop offset="20%" stop-color="#001220" stop-opacity="1"></stop><stop offset="80%" stop-color="#001220" stop-opacity="1"></stop></linearGradient></defs><defs><linearGradient id="grad2_0" x1="0%" y1="0%" x2="66.7%" y2="100%"><stop offset="20%" stop-color="#001220" stop-opacity="1"></stop><stop offset="80%" stop-color="#001220" stop-opacity="1"></stop></linearGradient></defs><g transform="translate(900, 0)"><path d="M0 486.7C-66.3 476.8 -132.6 466.8 -179.5 433.3C-226.4 399.8 -254 342.7 -301.2 301.2C-348.5 259.8 -415.5 233.9 -449.7 186.3C-483.9 138.7 -485.3 69.3 -486.7 0L0 0Z" fill="#C62368"></path></g><g transform="translate(0, 600)"><path d="M0 -486.7C54.5 -457.6 109 -428.5 169.5 -409.3C230.1 -390 296.7 -380.6 344.2 -344.2C391.7 -307.8 420.1 -244.4 440.7 -182.5C461.3 -120.7 474 -60.3 486.7 0L0 0Z" fill="#C62368"></path></g></svg>